<?xml version="1.0" encoding="UTF-8" standalone="no"?>
<!DOCTYPE svg PUBLIC "-//W3C//DTD SVG 1.1//EN" "http://www.w3.org/Graphics/SVG/1.1/DTD/svg11.dtd">
<svg width="100%" height="100%" viewBox="0 0 184 279" version="1.1" xmlns="http://www.w3.org/2000/svg" xmlns:xlink="http://www.w3.org/1999/xlink" xml:space="preserve" xmlns:serif="http://www.serif.com/" style="fill-rule:evenodd;clip-rule:evenodd;stroke-linejoin:round;stroke-miterlimit:2;">
    <g id="svgg" transform="matrix(0.468504,0,0,0.468504,0.0429096,0.00420127)">
        <path id="path0" d="M354.95,0.411C353.929,0.606 352.537,0.876 351.856,1.011C351.176,1.145 350.116,1.351 349.502,1.47C348.887,1.588 347.829,1.852 347.15,2.057C346.471,2.262 345.248,2.618 344.431,2.847C343.614,3.077 342.5,3.407 341.955,3.581C341.411,3.755 340.297,4.093 339.48,4.333C338.663,4.572 337.644,4.921 337.215,5.107C336.786,5.293 336.282,5.446 336.094,5.446C335.907,5.446 335.506,5.619 335.203,5.831C334.9,6.043 334.458,6.255 334.22,6.302C333.593,6.425 331.667,7.161 330.902,7.569C330.541,7.763 330.112,7.921 329.95,7.921C329.635,7.921 328.272,8.481 327.19,9.057C326.828,9.249 326.4,9.406 326.238,9.406C326.076,9.406 324.479,10.116 322.687,10.983C320.896,11.851 318.985,12.75 318.441,12.982C317.038,13.578 315.739,14.21 315.594,14.365C315.526,14.438 314.078,15.202 312.376,16.062C308.851,17.844 307.849,18.381 307.673,18.581C307.605,18.659 307.021,18.975 306.375,19.284C305.729,19.592 305.138,19.947 305.061,20.071C304.984,20.195 304.722,20.297 304.479,20.297C304.236,20.297 303.836,20.52 303.589,20.792C303.343,21.064 302.936,21.287 302.684,21.287C302.433,21.287 302.228,21.371 302.228,21.473C302.228,21.576 301.699,21.935 301.052,22.272C300.405,22.608 299.821,22.945 299.752,23.019C299.684,23.093 299.35,23.292 299.01,23.461C298.67,23.629 298.057,23.991 297.649,24.263C297.24,24.535 296.711,24.826 296.473,24.908C296.235,24.99 296.04,25.149 296.04,25.26C296.04,25.372 295.65,25.604 295.173,25.776C294.697,25.949 294.307,26.165 294.307,26.257C294.307,26.35 293.973,26.564 293.564,26.733C293.156,26.902 292.822,27.138 292.822,27.258C292.822,27.377 292.655,27.475 292.45,27.475C292.246,27.475 292.079,27.587 292.079,27.723C292.079,27.859 291.928,27.97 291.744,27.97C291.559,27.97 290.897,28.36 290.273,28.837C289.649,29.313 289.025,29.703 288.886,29.703C288.747,29.703 288.434,29.913 288.19,30.17C287.947,30.426 287.358,30.849 286.881,31.109C285.132,32.064 283.416,33.217 283.416,33.437C283.416,33.562 283.3,33.663 283.158,33.663C282.865,33.663 281.355,34.681 281.229,34.963C281.184,35.065 281.055,35.149 280.942,35.149C280.615,35.149 278.713,36.453 278.713,36.678C278.713,36.79 278.555,36.881 278.362,36.881C278.169,36.881 277.974,36.969 277.929,37.076C277.884,37.183 277.345,37.568 276.733,37.932C276.12,38.296 275.34,38.826 275,39.11C274.66,39.394 273.546,40.231 272.525,40.969C271.504,41.707 270.473,42.481 270.235,42.69C269.997,42.899 269.746,43.069 269.678,43.069C269.61,43.069 269.348,43.264 269.097,43.502C268.317,44.24 267.694,44.703 267.254,44.872C265.218,45.653 274.557,56.583 284.035,64.512C314.301,89.832 368.226,115.503 388.302,114.149L389.563,114.064L389.705,111.921C389.783,110.742 389.972,108.552 390.124,107.054C390.277,105.557 390.489,102.438 390.595,100.124C390.701,97.809 390.924,93.075 391.091,89.604C391.522,80.613 390.954,57.712 390.221,54.53C390.152,54.231 390.035,53.173 389.961,52.179C389.811,50.184 389.762,49.737 389.392,47.03C389.252,46.009 389.078,44.672 389.004,44.059C388.931,43.447 388.76,42.5 388.624,41.955C388.489,41.411 388.375,40.569 388.372,40.084C388.369,39.599 388.153,38.374 387.893,37.361C387.633,36.348 387.359,35.074 387.285,34.53C387.117,33.303 386.714,31.454 386.26,29.827C386.07,29.146 385.858,28.311 385.788,27.97C385.305,25.619 384.358,22.313 383.966,21.613C383.8,21.315 383.663,20.856 383.663,20.592C383.663,20.147 383.138,18.735 382.309,16.955C382.119,16.547 381.717,15.513 381.416,14.658C381.115,13.803 380.774,13.045 380.657,12.973C380.541,12.901 380.446,12.635 380.446,12.382C380.446,12.129 380.353,11.885 380.24,11.84C380.127,11.795 379.73,11.145 379.357,10.396C378.756,9.189 377.43,7.097 376.734,6.26C376.597,6.096 376.485,5.913 376.485,5.853C376.485,5.366 372.045,1.485 371.488,1.485C371.296,1.485 371.015,1.362 370.865,1.211C369.738,0.085 359.369,-0.437 354.95,0.411M263.738,138.376C227.357,141.084 206.332,181.618 225.029,213.004C245.051,246.617 294.384,244.748 311.881,209.714C327.546,178.348 306.154,140.929 271.089,138.363C267.625,138.11 267.313,138.11 263.738,138.376M273.956,151.486C302.609,156.646 314.307,191.71 294.42,212.827C274.28,234.213 238.727,224.772 231.798,196.198C225.609,170.674 248.092,146.829 273.956,151.486M111.386,262.42C110.637,262.676 109.802,262.985 109.53,263.105C109.257,263.226 108.812,263.381 108.54,263.45C107.699,263.663 103.861,265.079 103.407,265.344C103.17,265.481 102.863,265.594 102.723,265.594C102.584,265.594 101.998,265.802 101.421,266.055C100.843,266.309 99.87,266.708 99.257,266.941C98.645,267.175 97.828,267.524 97.443,267.718C97.057,267.911 96.647,268.069 96.532,268.069C96.416,268.069 95.6,268.403 94.717,268.812C93.835,269.22 93.046,269.554 92.965,269.554C92.581,269.554 79.932,275.779 77.599,277.116C76.782,277.584 75.557,278.253 74.876,278.602C74.196,278.951 73.304,279.45 72.896,279.71C72.488,279.97 71.819,280.369 71.411,280.596C71.002,280.824 70.613,281.078 70.545,281.161C70.476,281.244 69.92,281.581 69.307,281.91C68.694,282.239 67.207,283.158 66.002,283.952C64.796,284.746 63.719,285.396 63.609,285.396C63.498,285.396 63.37,285.48 63.325,285.582C63.205,285.853 61.694,286.881 61.417,286.881C61.286,286.881 61.143,286.965 61.097,287.067C61.052,287.169 60.516,287.587 59.906,287.995C59.296,288.403 58.628,288.869 58.421,289.03C58.214,289.19 56.652,290.349 54.95,291.605C53.249,292.861 51.801,293.957 51.733,294.04C51.665,294.123 50.913,294.746 50.063,295.425C49.212,296.103 48.516,296.742 48.516,296.844C48.515,296.946 48.357,297.03 48.164,297.03C47.971,297.03 47.776,297.126 47.731,297.244C47.686,297.361 46.688,298.293 45.514,299.313C42.27,302.132 39.358,304.937 35.644,308.819C33.787,310.76 33.03,311.608 30.941,314.092C30.328,314.821 29.652,315.596 29.439,315.815C28.672,316.603 24.257,322.499 24.257,322.736C24.257,322.869 24.168,323.016 24.058,323.061C23.777,323.178 21.04,327.183 21.04,327.479C21.04,327.613 20.946,327.723 20.832,327.723C20.718,327.723 20.494,327.973 20.334,328.28C20.175,328.586 19.824,329.171 19.556,329.579C19.287,329.988 18.954,330.545 18.816,330.817C18.678,331.089 18.426,331.53 18.256,331.798C17.827,332.469 16.907,334.012 16.285,335.103C15.536,336.416 12.028,343.465 11.396,344.926C11.102,345.606 10.711,346.498 10.528,346.906C10.344,347.314 10.002,348.15 9.766,348.762C9.531,349.375 9.187,350.227 9.001,350.656C8.815,351.085 8.663,351.514 8.663,351.609C8.663,351.704 8.515,352.133 8.333,352.562C8.151,352.991 7.866,353.731 7.699,354.208C7.532,354.684 7.143,355.798 6.833,356.683C5.626,360.133 4.491,364.187 3.576,368.317C3.35,369.338 3.013,370.842 2.827,371.658C-0.3,385.435 -0.988,406.42 1.121,423.762C1.61,427.79 2.472,433.531 2.77,434.744L3.005,435.7L3.482,435.187C3.745,434.905 3.96,434.603 3.96,434.516C3.96,434.43 4.629,433.36 5.446,432.138C6.262,430.917 6.931,429.87 6.931,429.811C6.931,429.751 7.103,429.508 7.313,429.27C7.524,429.032 8.491,427.778 9.463,426.485C10.435,425.192 11.295,424.078 11.375,424.01C11.454,423.942 12.114,423.162 12.84,422.277C21.558,411.662 32.273,403.299 43.441,398.394C44.257,398.035 45.119,397.637 45.356,397.509C45.592,397.382 45.987,397.277 46.234,397.277C46.481,397.277 46.789,397.183 46.918,397.067C47.288,396.736 51.744,395.478 54.95,394.799C60.553,393.612 69.489,393.566 74.432,394.698C76.981,395.281 76.885,395.343 77.078,393.007C77.171,391.884 77.353,390.241 77.483,389.356C77.613,388.472 77.949,386.077 78.23,384.035C79.572,374.276 81.214,365.338 83.933,352.997C85.178,347.347 87.553,337.703 88.908,332.797C91.071,324.962 91.008,325.181 93.194,317.822C94.459,313.563 94.969,311.947 97.492,304.208C101.315,292.485 105.916,279.732 110.746,267.476C111.921,264.495 112.851,262.034 112.815,262.005C112.778,261.977 112.135,262.164 111.386,262.42M202.475,296.493C195.111,299.512 182.726,308.821 172.636,318.919C158.251,333.315 151.081,344.254 145.286,360.644C142.381,368.862 138.271,379.252 129.769,399.876C125.965,409.103 121.442,420.299 119.669,424.876C118.878,426.918 117.688,429.981 117.025,431.683C110.635,448.071 103.007,468.904 97.902,483.911C96.693,487.468 93.123,497.358 91.694,501.114C91.439,501.782 91.224,502.04 96.031,495.943C98.381,492.963 102.466,487.921 105.109,484.738C110.656,478.059 121.43,464.637 126.114,458.571C127.884,456.28 130.395,453.051 131.695,451.398C136.76,444.954 147.84,430.296 153.989,421.906C170.337,399.596 177.16,390.485 182.865,383.343C194.683,368.551 199.902,357.956 204.807,338.801C208.368,324.893 210.3,302.628 208.29,298.655C207.156,296.413 204.803,295.538 202.475,296.493M283.876,359.679C283.397,360.278 281.407,362.884 279.454,365.47C252.363,401.347 220.908,434.365 192.698,456.537C189.89,458.744 189.976,458.588 190.965,459.692C191.374,460.147 192.149,461.077 192.688,461.757C193.227,462.438 193.858,463.201 194.09,463.452C194.744,464.16 197.277,467.991 197.277,468.273C197.277,468.41 197.371,468.56 197.486,468.606C197.601,468.651 197.852,468.994 198.043,469.368C198.989,471.218 200.578,474.437 200.761,474.876C202.573,479.215 203.596,482.82 204.625,488.49C205.276,492.076 205.278,505.067 204.629,509.035C204.066,512.47 203.521,515.398 203.178,516.832C203.031,517.444 202.814,518.391 202.695,518.936C202.577,519.48 202.249,520.705 201.967,521.658C201.685,522.611 201.361,523.781 201.247,524.257C201.132,524.734 200.898,525.514 200.727,525.99C200.555,526.467 200.196,527.469 199.928,528.218C198.478,532.281 197.762,534.087 196.127,537.809C195.545,539.134 195.461,539.306 194.561,541.038C193.725,542.644 193.726,543.149 194.562,542.627C194.827,542.462 195.167,542.327 195.318,542.327C195.47,542.327 196,542.148 196.497,541.93C197.808,541.355 198.213,541.184 199.993,540.455C205.209,538.319 216.258,532.86 219.678,530.73C220.359,530.306 221.192,529.839 221.53,529.692C221.867,529.545 222.201,529.345 222.272,529.248C222.343,529.151 222.93,528.796 223.577,528.46C224.223,528.123 224.752,527.764 224.752,527.661C224.752,527.559 224.876,527.475 225.028,527.475C225.179,527.475 226.635,526.584 228.263,525.495C229.891,524.406 231.279,523.515 231.347,523.515C231.415,523.515 231.618,523.376 231.799,523.205C231.979,523.035 233.085,522.231 234.256,521.417C235.428,520.604 236.386,519.852 236.386,519.747C236.386,519.641 236.544,519.554 236.737,519.554C236.93,519.554 237.125,519.464 237.17,519.353C237.215,519.243 237.921,518.666 238.738,518.071C239.554,517.477 240.278,516.925 240.347,516.846C240.455,516.719 241.025,516.245 243.791,513.985C247.76,510.742 257.49,500.799 260.52,496.889C261.146,496.082 261.764,495.384 261.894,495.338C262.023,495.293 262.129,495.107 262.129,494.926C262.129,494.744 262.212,494.559 262.314,494.513C262.73,494.328 267.822,487.275 267.822,486.884C267.822,486.746 267.915,486.634 268.03,486.634C268.144,486.634 268.371,486.383 268.534,486.077C268.868,485.451 269.159,484.971 270.073,483.54C270.42,482.995 270.784,482.382 270.882,482.178C271.155,481.605 271.65,480.781 271.943,480.41C272.705,479.444 277.662,469.612 278.975,466.46C279.285,465.717 280.203,463.359 280.565,462.376C280.741,461.9 281.054,461.064 281.261,460.52C282.157,458.166 282.671,456.72 283.067,455.446C283.299,454.697 283.627,453.694 283.795,453.218C284.366,451.597 285.937,445.572 286.861,441.46C287.815,437.212 288.119,435.694 288.119,435.18C288.119,434.896 288.278,433.798 288.472,432.74C288.807,430.917 289.231,427.519 289.888,421.411C290.395,416.695 290.463,397.958 289.994,392.203C289.004,380.049 287.328,368.964 285.171,360.298L284.746,358.59L283.876,359.679" style="fill:rgb(4,66,105);"/>
        <path id="path1" d="M265.333,46.319C264.592,46.875 263.929,47.403 263.861,47.491C263.793,47.579 263.292,47.981 262.748,48.385C261.657,49.193 261.542,49.283 260.644,50.026C260.303,50.308 259.646,50.835 259.184,51.197C257.297,52.676 256.252,53.528 255.103,54.523C254.439,55.098 253.332,55.994 252.643,56.514C251.955,57.033 251.274,57.604 251.129,57.783C250.985,57.962 249.782,59.005 248.456,60.102C247.13,61.199 245.794,62.355 245.486,62.671C245.178,62.987 244.09,63.984 243.069,64.888C242.048,65.792 240.75,66.961 240.184,67.486C239.619,68.011 238.458,69.053 237.604,69.802C235.491,71.657 217.901,89.227 215.594,91.789C214.573,92.922 213.292,94.33 212.748,94.917C211.316,96.461 210.452,97.429 208.783,99.365C207.968,100.309 206.968,101.428 206.559,101.851C206.151,102.275 205.371,103.167 204.827,103.835C204.282,104.503 203.558,105.344 203.218,105.704C202.516,106.446 202.119,106.92 200.371,109.099C199.691,109.947 199.05,110.642 198.948,110.643C198.846,110.643 198.762,110.811 198.762,111.015C198.762,111.219 198.674,111.386 198.566,111.386C198.458,111.386 197.929,111.971 197.391,112.686C196.853,113.4 196.287,114.097 196.132,114.233C195.978,114.369 194.996,115.594 193.951,116.955C192.906,118.317 191.695,119.867 191.261,120.4C189.604,122.433 183.71,130.256 181.931,132.784C181.182,133.847 180.458,134.842 180.322,134.995C179.943,135.419 178.257,137.854 177.429,139.171C177.023,139.817 176.588,140.347 176.464,140.347C176.339,140.347 176.238,140.454 176.238,140.586C176.238,140.718 175.764,141.503 175.186,142.331C174.607,143.159 173.967,144.104 173.762,144.43C173.015,145.625 171.901,147.156 171.72,147.236C171.618,147.281 171.535,147.414 171.535,147.53C171.535,147.733 167.623,153.763 167.089,154.383C166.947,154.548 166.832,154.754 166.832,154.842C166.832,154.93 166.498,155.498 166.089,156.103C165.681,156.708 165.347,157.254 165.347,157.317C165.347,157.38 164.957,157.985 164.48,158.663C164.004,159.341 163.614,159.948 163.614,160.011C163.614,160.075 163.324,160.549 162.97,161.066C162.616,161.582 162.225,162.228 162.1,162.5C161.976,162.772 161.681,163.291 161.444,163.652C161.208,164.014 160.469,165.239 159.802,166.375C159.135,167.511 158.52,168.496 158.437,168.564C158.353,168.632 158.063,169.16 157.793,169.737C157.523,170.314 157.229,170.788 157.141,170.789C157.052,170.791 156.859,171.098 156.712,171.473C156.565,171.847 156.005,172.877 155.468,173.762C154.931,174.647 154.214,175.928 153.875,176.609C153.536,177.29 152.971,178.269 152.619,178.786C152.268,179.302 151.98,179.881 151.98,180.071C151.98,180.261 151.873,180.483 151.741,180.564C151.609,180.646 151.234,181.237 150.907,181.878C149.812,184.028 149.382,184.777 149.196,184.86C149.093,184.905 149.01,185.052 149.01,185.187C149.01,185.321 148.356,186.62 147.556,188.074C146.244,190.462 145.042,192.733 142.17,198.25C140.302,201.838 135.202,211.924 134.427,213.561C133.995,214.475 133.54,215.39 133.416,215.594C133.208,215.937 132.435,217.559 129.525,223.762C128.918,225.056 127.943,227.116 127.358,228.342C126.773,229.567 126.052,231.126 125.756,231.807C125.46,232.488 125.066,233.379 124.88,233.787C124.695,234.196 124.193,235.309 123.765,236.262C123.338,237.215 122.785,238.441 122.537,238.985C122.29,239.53 121.918,240.365 121.71,240.842C121.503,241.318 121.005,242.432 120.604,243.317C120.203,244.202 119.506,245.817 119.056,246.906C118.606,247.995 117.866,249.691 117.411,250.674C116.956,251.657 116.584,252.609 116.584,252.79C116.584,252.971 116.492,253.225 116.38,253.354C116.267,253.483 115.756,254.647 115.244,255.941C114.731,257.234 114.155,258.654 113.963,259.097C113.771,259.539 113.456,260.263 113.264,260.705C113.072,261.148 112.847,261.896 112.765,262.368C112.682,262.839 112.014,264.733 111.279,266.576C105.51,281.048 100.046,296.348 95.807,309.901C95.104,312.147 94.385,314.431 94.209,314.975C93.853,316.073 93.448,317.428 92.321,321.287C91.904,322.717 91.412,324.387 91.229,325C91.045,325.613 90.661,326.949 90.375,327.97C88.98,332.95 88.533,334.6 88.361,335.396C88.258,335.873 87.719,338.045 87.164,340.223C85.88,345.254 84.737,349.919 84.283,351.98C84.088,352.865 83.752,354.369 83.537,355.322C83.321,356.275 83.044,357.611 82.921,358.292C82.798,358.973 82.418,360.866 82.076,362.5C80.562,369.743 78.825,380.159 77.866,387.748C77.205,392.973 77.011,394.38 76.621,396.782C76.411,398.075 76.127,400.972 75.989,403.218C75.851,405.464 75.631,408.917 75.498,410.891C75.366,412.865 75.256,416.722 75.253,419.463L75.248,424.445L75.99,424.752C76.399,424.922 76.733,425.158 76.733,425.278C76.733,425.397 76.946,425.495 77.207,425.495C77.618,425.495 79.702,426.628 90.842,432.909C91.999,433.561 96.176,435.905 100.124,438.118C104.072,440.331 108.262,442.684 109.435,443.348C110.609,444.011 111.667,444.553 111.787,444.552C111.907,444.55 112.714,442.629 113.581,440.282C114.898,436.715 117.236,430.622 118.685,426.98C118.875,426.504 119.431,425.056 119.92,423.762C120.41,422.469 121.129,420.631 121.517,419.678C121.906,418.725 122.558,417.11 122.968,416.089C123.709,414.241 124.838,411.458 126.281,407.921C126.697,406.9 127.183,405.73 127.361,405.322C127.664,404.625 128.509,402.579 130.939,396.658C131.498,395.297 132.047,393.96 132.16,393.688C133.457,390.546 136.712,382.506 137.121,381.436C137.355,380.823 137.778,379.765 138.061,379.084C138.606,377.772 141.208,371.179 142.652,367.45C143.126,366.225 143.737,364.554 144.01,363.738C147.483,353.331 151.399,345.07 156.151,338.119C166.467,323.033 184.034,306.421 197.649,298.88C203.195,295.807 203.9,295.568 205.67,296.156C207.035,296.609 207.962,297.482 208.572,298.886C209.191,300.313 209.194,314.139 208.577,319.059C207.484,327.763 206.146,334.692 204.203,341.708C203.902,342.797 203.568,344.022 203.462,344.431C203.119,345.747 201.204,351.57 200.694,352.847C200.422,353.527 200.054,354.474 199.875,354.95C195.932,365.486 191.928,372.229 182.899,383.54C177.946,389.745 170.862,399.129 162.344,410.767C161.049,412.537 158.848,415.545 157.454,417.45C156.059,419.356 154.785,421.083 154.621,421.287C154.458,421.491 154.051,422.048 153.717,422.525C151.431,425.783 141.058,439.543 134.238,448.364C133.806,448.923 132.556,450.543 131.462,451.963L129.473,454.546L130.145,454.952C130.514,455.175 131.55,455.766 132.446,456.266L134.075,457.174L137.891,453.785C178.251,417.944 220.14,375.473 250.751,339.359C256.85,332.164 259.995,328.314 268.549,317.574C284.463,297.593 300.682,273.105 310.786,253.803C311.703,252.052 312.536,250.507 312.636,250.371C312.903,250.011 320.329,235.138 321.942,231.733C326.715,221.66 331.888,209.699 335.773,199.752C338.021,193.998 338.282,193.319 339.194,190.842C347.315,168.775 353.145,149.378 358.686,125.99C359.666,121.856 359.889,120.846 361.009,115.47C361.633,112.475 362.192,109.796 362.252,109.517C362.347,109.075 362.065,108.903 360.079,108.191C357.748,107.355 356.106,106.697 350.861,104.498C345.217,102.13 333.987,96.707 328.342,93.623C327.116,92.953 325.334,91.979 324.381,91.458C323.428,90.937 322.233,90.251 321.725,89.933C321.217,89.616 320.754,89.356 320.696,89.356C320.56,89.356 312.33,84.542 311.015,83.694C309.965,83.016 309.863,82.953 307.999,81.834C302.709,78.658 289.206,69.192 286.386,66.684C286.046,66.381 284.724,65.268 283.448,64.21C276.157,58.164 269.484,50.838 267.245,46.421L266.681,45.307L265.333,46.319M274.276,138.488C306.432,143.58 325.005,174.903 313.979,205.446C310.872,214.05 303.451,223.495 295.741,228.653C294.109,229.746 293.227,230.271 290.293,231.898C282.462,236.24 268.774,238.522 260.272,236.903C248.613,234.683 240.404,230.583 232.907,223.238C204.724,195.622 218.265,148.031 256.807,139.244C261.911,138.08 269.599,137.748 274.276,138.488M82.308,455.533C79.312,459.412 76.442,463.715 73.815,468.268C72.777,470.066 68.986,477.61 68.628,478.589C68.478,478.998 67.919,480.39 67.385,481.683C66.361,484.161 65.195,487.491 64.481,489.975C64.247,490.792 63.91,491.962 63.734,492.574C59.219,508.246 59.977,526.818 65.775,542.636C66.789,545.402 66.794,545.405 67.563,543.998C68.622,542.062 70.626,538.511 71.829,536.44C72.484,535.313 73.02,534.342 73.02,534.282C73.02,534.222 73.521,533.325 74.134,532.289C74.746,531.252 75.248,530.351 75.248,530.285C75.248,530.219 75.804,529.223 76.485,528.07C77.166,526.918 77.723,525.929 77.723,525.873C77.723,525.817 78.447,524.533 79.332,523.02C80.217,521.507 80.941,520.222 80.941,520.166C80.941,520.11 81.442,519.216 82.054,518.18C82.667,517.144 83.168,516.266 83.168,516.23C83.168,516.193 84.131,514.448 85.308,512.352C86.485,510.255 87.786,507.927 88.199,507.178C88.612,506.429 89.407,505.037 89.967,504.084C90.858,502.566 91.318,501.51 92.962,497.215C93.157,496.705 93.477,495.869 93.674,495.359C94.637,492.853 97.131,485.821 98.348,482.178C99.588,478.468 101.952,471.674 102.869,469.183C103.83,466.575 103.985,466.016 103.795,465.844C103.682,465.741 99.245,463.23 93.936,460.263C88.626,457.297 84.059,454.732 83.787,454.565C83.342,454.29 83.193,454.388 82.308,455.533" style="fill:rgb(251,203,52);"/>
        <path id="path2" d="M261.386,151.473C231.872,156.853 220.497,192.537 241.575,213.624C261.842,233.901 296.223,224.406 303.221,196.6C309.648,171.063 287.136,146.78 261.386,151.473M76.486,426.671C75.904,427.779 73.034,432.857 72.534,433.663C72.408,433.868 71.841,434.926 71.274,436.015C70.707,437.104 70.172,438.051 70.085,438.119C69.997,438.187 69.752,438.577 69.54,438.985C68.695,440.61 67.24,443.22 66.921,443.681C66.174,444.764 65.888,444.557 75.48,449.9C76.237,450.322 78.639,451.671 80.817,452.898C82.995,454.124 88.899,457.437 93.936,460.259C98.973,463.081 103.332,465.541 103.623,465.726C104.128,466.049 104.175,465.997 104.693,464.529C105.151,463.236 109.212,452.19 111.335,446.469C111.676,445.548 111.911,444.758 111.857,444.715C111.802,444.671 110.755,444.075 109.53,443.388C102.976,439.719 92.68,433.945 90.842,432.909C75.553,424.289 77.331,425.061 76.486,426.671M126.489,458.114C124.933,460.118 121.834,464.06 119.602,466.874C117.371,469.688 115.544,472.077 115.542,472.182C115.541,472.287 116.805,473.084 118.351,473.954C119.898,474.823 122.054,476.045 123.144,476.669C124.233,477.293 128.855,479.885 133.416,482.429C137.976,484.973 142.209,487.336 142.822,487.68C143.434,488.024 144.938,488.865 146.163,489.548C147.389,490.231 149.456,491.397 150.758,492.139L153.124,493.488L153.689,492.474C154,491.917 154.606,490.795 155.036,489.982C155.465,489.168 155.956,488.353 156.126,488.169C156.296,487.986 156.436,487.685 156.436,487.5C156.436,487.315 156.602,486.997 156.806,486.794C157.01,486.59 157.29,486.164 157.43,485.848C157.786,485.038 159.045,482.759 160.893,479.579C162.987,475.974 163.875,474.232 163.733,474.003C163.669,473.899 161.583,472.674 159.098,471.279C156.613,469.885 151.405,466.963 147.525,464.786C140.67,460.94 131.585,455.801 130.067,454.911L129.318,454.471L126.489,458.114" style="fill:rgb(235,235,235);"/>
        <path id="path3" d="M391.152,87.995C391.154,88.54 391.205,88.733 391.264,88.425C391.323,88.117 391.321,87.672 391.259,87.435C391.197,87.199 391.149,87.45 391.152,87.995M385.705,114.28C385.944,114.342 386.334,114.342 386.572,114.28C386.81,114.217 386.615,114.166 386.139,114.166C385.662,114.166 385.467,114.217 385.705,114.28M387.686,114.28C387.924,114.342 388.314,114.342 388.552,114.28C388.79,114.217 388.595,114.166 388.119,114.166C387.642,114.166 387.447,114.217 387.686,114.28M266.774,237.308C267.219,237.363 267.887,237.362 268.259,237.306C268.631,237.249 268.267,237.204 267.45,237.205C266.634,237.207 266.329,237.253 266.774,237.308M208.994,307.673C208.994,308.694 209.038,309.112 209.091,308.601C209.145,308.091 209.145,307.256 209.091,306.745C209.038,306.235 208.994,306.652 208.994,307.673M172.269,318.998L170.916,320.421L172.339,319.068C173.661,317.811 173.876,317.574 173.692,317.574C173.653,317.574 173.013,318.215 172.269,318.998M65.767,445.471C65.468,445.825 64.984,446.379 64.693,446.703C64.402,447.026 63.901,447.677 63.579,448.148C63.258,448.62 62.912,449.007 62.809,449.008C62.707,449.009 62.624,449.165 62.624,449.355C62.624,449.544 62.457,449.764 62.252,449.842C62.048,449.92 61.881,450.098 61.881,450.237C61.881,450.376 61.718,450.686 61.518,450.925C60.83,451.753 59.537,453.599 57.487,456.683C54.081,461.807 52.915,463.654 52.178,465.099C51.865,465.712 51.544,466.269 51.464,466.337C51.384,466.405 50.953,467.129 50.505,467.946C50.057,468.762 49.354,470.043 48.943,470.792C47.058,474.224 43.913,480.646 42.639,483.663C42.438,484.14 42.115,484.89 41.922,485.331C40.753,487.997 39.688,490.605 39.268,491.832C39.058,492.444 38.653,493.558 38.367,494.307C38.082,495.056 37.619,496.392 37.34,497.277C37.061,498.162 36.686,499.276 36.506,499.752C36.017,501.049 34.922,504.794 34.064,508.106C28.16,530.896 27.91,554.191 33.341,575.619C34.453,580.005 36.238,585.718 37.634,589.356C37.921,590.105 38.253,590.996 38.371,591.337C39.42,594.355 39.575,594.436 42.931,593.724C51.217,591.966 52.939,591.554 56.559,590.461C59.323,589.626 63.862,588.117 65.842,587.375C66.999,586.941 68.384,586.423 68.921,586.223C69.457,586.024 70.515,585.58 71.272,585.236C72.029,584.891 73.313,584.313 74.124,583.951C77.683,582.362 85.808,578.03 88.716,576.169C93.295,573.242 98.854,569.338 101.359,567.291C102.872,566.055 107.21,562.384 108.168,561.529C109.803,560.07 118.279,551.569 119.564,550.098C122.741,546.464 123.375,545.72 124.325,544.51C124.894,543.786 125.427,543.137 125.51,543.069C125.845,542.794 129.455,538.059 129.455,537.894C129.455,537.797 129.694,537.461 129.986,537.148C130.676,536.406 132.178,534.172 132.178,533.886C132.178,533.764 132.271,533.663 132.385,533.663C132.559,533.663 135.089,530.017 135.363,529.371C135.414,529.252 135.971,528.356 136.601,527.378C139.855,522.331 143.07,516.502 146.923,508.663C147.556,507.375 149.602,502.642 150.721,499.876C150.831,499.604 151.117,498.936 151.355,498.391C151.814,497.344 152.971,493.92 152.969,493.619C152.967,493.435 152.513,493.155 149.752,491.634C148.868,491.146 145.45,489.223 142.158,487.36L136.173,483.973L135.934,484.623C124.197,516.565 98.368,540.126 69.68,545.058C68.862,545.198 67.885,545.375 67.508,545.45C66.69,545.612 66.291,544.845 64.659,539.96C55.754,513.304 62.039,481.715 81.208,456.778L83.133,454.273L80.613,452.88C77.593,451.211 76.196,450.427 70.594,447.253L66.312,444.827L65.767,445.471" style="fill:rgb(199,56,47);"/>
        <path id="path4" d="M273.267,54.579C273.729,55.056 274.163,55.446 274.231,55.446C274.299,55.446 273.977,55.056 273.515,54.579C273.053,54.103 272.619,53.713 272.551,53.713C272.483,53.713 272.805,54.103 273.267,54.579M279.208,60.52C279.67,60.996 280.103,61.386 280.171,61.386C280.239,61.386 279.917,60.996 279.455,60.52C278.994,60.043 278.56,59.653 278.492,59.653C278.424,59.653 278.746,60.043 279.208,60.52M286.634,66.9C286.634,66.947 286.996,67.251 287.438,67.575C287.936,67.939 288.109,67.999 287.892,67.732C287.562,67.326 286.634,66.712 286.634,66.9M326.733,92.685C326.733,92.753 327.067,92.982 327.475,93.193C327.884,93.404 328.218,93.521 328.218,93.453C328.218,93.385 327.884,93.157 327.475,92.946C327.067,92.734 326.733,92.617 326.733,92.685M362.258,109.492C362.195,109.785 361.633,112.475 361.009,115.47C359.889,120.846 359.666,121.856 358.686,125.99C353.145,149.378 347.315,168.775 339.194,190.842C338.282,193.319 338.021,193.998 335.773,199.752C331.888,209.699 326.715,221.66 321.942,231.733C320.329,235.138 312.903,250.011 312.636,250.371C312.536,250.507 311.703,252.052 310.786,253.803C303.475,267.771 294.502,282.154 283.204,298.02C280.501,301.817 270.954,314.554 268.549,317.574C259.995,328.314 256.85,332.164 250.751,339.359C230.261,363.533 201.237,394.213 175.115,419.311C160.984,432.888 150.746,442.37 137.995,453.69C133.616,457.577 133.883,457.151 135.336,457.932C135.982,458.279 138.905,459.906 141.832,461.547C144.759,463.189 149.103,465.625 151.485,466.962C153.868,468.298 157.599,470.388 159.777,471.606C161.955,472.825 163.793,473.904 163.861,474.005C164.062,474.302 165.536,475 165.964,475C166.315,475 168.96,473.442 169.73,472.781C169.894,472.64 170.091,472.525 170.168,472.525C170.244,472.525 170.778,472.221 171.354,471.849C172.771,470.935 173.292,470.617 173.948,470.267C174.254,470.104 174.505,469.877 174.505,469.762C174.505,469.648 174.622,469.554 174.765,469.554C175.066,469.554 180.814,465.656 183.931,463.337C185.099,462.468 186.315,461.59 186.633,461.386C186.95,461.182 187.391,460.848 187.611,460.644C187.831,460.439 188.453,459.941 188.993,459.536C189.533,459.131 190.142,458.619 190.347,458.398C190.551,458.177 191.498,457.396 192.45,456.662C205.718,446.442 226.539,427.102 239.594,412.871C241.28,411.033 243.227,408.917 243.921,408.168C247.253,404.571 253.82,397.106 257.449,392.793C258.321,391.756 260.103,389.639 261.41,388.09C264.02,384.993 274.032,372.51 276.999,368.651C278.031,367.31 280.133,364.553 281.671,362.524C283.208,360.495 284.759,358.536 285.117,358.171C285.475,357.806 286.825,356.026 288.119,354.215C289.412,352.404 290.999,350.218 291.646,349.356C292.293,348.495 292.822,347.687 292.822,347.56C292.822,347.434 292.989,347.266 293.193,347.188C293.397,347.109 293.564,346.919 293.564,346.764C293.564,346.609 293.899,346.06 294.307,345.545C294.715,345.029 295.05,344.484 295.05,344.333C295.05,344.183 295.141,344.059 295.253,344.059C295.365,344.059 295.731,343.642 296.066,343.131C296.401,342.621 297.534,340.949 298.585,339.417C299.635,337.885 300.495,336.559 300.495,336.472C300.495,336.385 300.862,335.856 301.31,335.298C301.759,334.739 302.508,333.67 302.976,332.921C303.444,332.172 303.968,331.412 304.141,331.232C304.314,331.052 304.455,330.81 304.455,330.693C304.455,330.576 304.595,330.329 304.765,330.143C304.935,329.958 305.186,329.621 305.322,329.395C305.458,329.168 306.526,327.558 307.696,325.816C308.865,324.074 310.213,322.036 310.692,321.287C311.17,320.538 312.413,318.623 313.454,317.031C314.495,315.439 315.347,314.086 315.347,314.024C315.347,313.963 315.997,312.927 316.792,311.721C318.179,309.619 319.339,307.756 319.979,306.605C320.144,306.308 320.398,305.897 320.545,305.693C320.691,305.489 320.945,305.084 321.111,304.793C321.876,303.444 324.384,299.368 324.517,299.257C324.598,299.189 324.738,298.967 324.827,298.762C324.916,298.558 325.27,297.946 325.612,297.401C325.954,296.856 326.313,296.244 326.41,296.04C326.506,295.835 326.897,295.207 327.278,294.642C327.659,294.078 327.97,293.547 327.97,293.462C327.97,293.377 328.273,292.836 328.643,292.26C329.758,290.524 330.2,289.762 330.508,289.047C330.67,288.673 330.889,288.366 330.995,288.366C331.101,288.366 331.188,288.264 331.188,288.139C331.188,288.014 331.669,287.095 332.256,286.097C332.843,285.099 333.402,284.115 333.496,283.911C333.591,283.707 333.885,283.205 334.15,282.797C334.415,282.389 334.896,281.553 335.22,280.941C335.545,280.328 336.314,278.936 336.93,277.847C338.057,275.853 339.186,273.784 341.385,269.678C342.645,267.325 350.825,250.908 351.682,249.01C351.959,248.397 352.43,247.339 352.73,246.658C353.03,245.978 353.695,244.53 354.208,243.441C354.721,242.351 355.559,240.458 356.07,239.233C356.581,238.007 357.318,236.308 357.707,235.457C358.097,234.606 358.416,233.843 358.416,233.762C358.416,233.681 358.575,233.263 358.769,232.834C359.35,231.55 362.035,224.93 362.799,222.896C363.203,221.822 363.875,220.115 364.358,218.936C364.526,218.527 364.752,217.915 364.862,217.574C364.972,217.234 365.298,216.343 365.588,215.594C365.877,214.845 366.379,213.453 366.704,212.5C367.03,211.547 367.588,209.988 367.946,209.035C368.303,208.082 368.823,206.578 369.101,205.693C369.378,204.808 369.702,203.861 369.82,203.589C370.051,203.058 370.508,201.643 371.781,197.525C372.223,196.095 372.738,194.56 372.926,194.113C373.114,193.666 373.267,193.111 373.267,192.88C373.267,192.649 373.48,191.901 373.741,191.218C374.001,190.534 374.389,189.363 374.602,188.614C374.969,187.325 375.25,186.336 376.151,183.168C376.593,181.615 377.047,179.937 377.557,177.97C377.752,177.222 378.139,175.774 378.419,174.752C379.336,171.4 380.289,167.506 381.54,162.005C382.246,158.9 383.557,152.799 384.013,150.495C384.215,149.474 384.554,147.803 384.767,146.782C384.981,145.761 385.153,144.703 385.151,144.431C385.149,144.158 385.307,143.212 385.502,142.327C385.961,140.241 386.963,133.917 387.875,127.351C388.159,125.309 388.546,122.525 388.736,121.163C388.925,119.802 389.148,117.686 389.231,116.46L389.381,114.233L386.194,114.184C382.562,114.129 378.456,113.505 373.515,112.257C370.619,111.526 368.867,111.011 363.427,109.292C362.419,108.973 362.369,108.982 362.258,109.492M263.181,138.296C263.555,138.353 264.168,138.353 264.542,138.296C264.916,138.239 264.61,138.193 263.861,138.193C263.113,138.193 262.806,138.239 263.181,138.296M270.857,138.296C271.234,138.353 271.791,138.352 272.095,138.293C272.399,138.234 272.092,138.188 271.411,138.19C270.73,138.191 270.481,138.24 270.857,138.296M232.673,152.351C231.659,153.373 230.885,154.208 230.953,154.208C231.021,154.208 231.907,153.373 232.921,152.351C233.935,151.33 234.709,150.495 234.641,150.495C234.573,150.495 233.687,151.33 232.673,152.351M300.743,150.811C300.743,150.848 301.606,151.711 302.661,152.729L304.579,154.579L302.729,152.661C301.011,150.879 300.743,150.63 300.743,150.811M316.894,183.292C316.897,183.837 316.948,184.03 317.007,183.722C317.066,183.414 317.064,182.969 317.002,182.732C316.94,182.496 316.891,182.748 316.894,183.292M217.917,187.624C217.917,189.325 217.957,190.022 218.005,189.171C218.053,188.32 218.053,186.928 218.005,186.077C217.957,185.226 217.917,185.922 217.917,187.624M316.889,192.327C316.889,192.803 316.94,192.998 317.002,192.76C317.065,192.522 317.065,192.132 317.002,191.894C316.94,191.655 316.889,191.85 316.889,192.327M304.856,220.298C304.363,220.843 303.96,221.366 303.96,221.461C303.96,221.556 304.044,221.528 304.147,221.399C304.249,221.269 304.717,220.746 305.185,220.235C305.654,219.725 305.973,219.307 305.894,219.307C305.815,219.307 305.348,219.753 304.856,220.298M232.178,222.649C232.918,223.397 233.578,224.01 233.646,224.01C233.715,224.01 233.165,223.397 232.426,222.649C231.686,221.9 231.026,221.287 230.958,221.287C230.889,221.287 231.439,221.9 232.178,222.649M302.831,222.587L302.104,223.391L302.908,222.664C303.658,221.986 303.827,221.782 303.635,221.782C303.593,221.782 303.231,222.144 302.831,222.587M234.653,224.83C234.653,224.873 235.015,225.235 235.458,225.634L236.262,226.361L235.535,225.557C234.858,224.807 234.653,224.639 234.653,224.83M297.525,227.134C295.937,228.376 295.708,228.69 297.103,227.712C298.143,226.983 299.001,226.213 298.731,226.25C298.68,226.257 298.137,226.655 297.525,227.134M237.465,227.171C237.661,227.488 239.109,228.56 239.109,228.388C239.109,228.327 238.7,227.965 238.2,227.583C237.7,227.202 237.37,227.017 237.465,227.171M263.8,237.308C264.242,237.363 264.966,237.363 265.408,237.308C265.851,237.253 265.489,237.208 264.604,237.208C263.719,237.208 263.357,237.253 263.8,237.308M269.487,237.307C269.926,237.362 270.706,237.363 271.22,237.309C271.733,237.256 271.374,237.211 270.421,237.21C269.468,237.209 269.048,237.253 269.487,237.307M206.683,296.612C206.683,296.655 207.045,297.017 207.488,297.417L208.292,298.144L207.565,297.339C206.887,296.589 206.683,296.421 206.683,296.612M189.233,304.353L188.49,304.991L189.295,304.459C189.737,304.166 190.099,303.879 190.099,303.82C190.099,303.634 189.994,303.699 189.233,304.353M208.978,304.95C208.978,305.563 209.027,305.814 209.086,305.507C209.145,305.201 209.145,304.7 209.086,304.394C209.027,304.087 208.978,304.338 208.978,304.95M208.978,310.396C208.978,311.009 209.027,311.259 209.086,310.953C209.145,310.647 209.145,310.145 209.086,309.839C209.027,309.533 208.978,309.783 208.978,310.396M178.574,312.933L177.847,313.738L178.651,313.011C179.093,312.611 179.455,312.249 179.455,312.206C179.455,312.015 179.251,312.183 178.574,312.933M175.495,315.718C174.481,316.739 173.707,317.574 173.775,317.574C173.843,317.574 174.728,316.739 175.743,315.718C176.757,314.697 177.531,313.861 177.463,313.861C177.395,313.861 176.509,314.697 175.495,315.718M208.738,315.842C208.738,316.59 208.784,316.897 208.841,316.522C208.897,316.148 208.897,315.535 208.841,315.161C208.784,314.787 208.738,315.093 208.738,315.842M169.3,321.968L167.698,323.639L169.369,322.037C170.921,320.549 171.153,320.297 170.971,320.297C170.933,320.297 170.181,321.049 169.3,321.968M207.978,322.772C207.978,323.249 208.029,323.444 208.091,323.205C208.154,322.967 208.154,322.577 208.091,322.339C208.029,322.101 207.978,322.296 207.978,322.772M166.445,325.062L165.718,325.866L166.522,325.139C166.965,324.739 167.327,324.377 167.327,324.335C167.327,324.144 167.122,324.312 166.445,325.062M77.285,391.337C77.285,391.813 77.336,392.008 77.398,391.77C77.461,391.532 77.461,391.142 77.398,390.903C77.336,390.665 77.285,390.86 77.285,391.337M169.415,400.909C169.034,401.408 168.848,401.739 169.003,401.644C169.32,401.448 170.391,400 170.22,400C170.158,400 169.796,400.409 169.415,400.909M78.96,459.777C78.539,460.39 78.25,460.891 78.318,460.891C78.386,460.891 78.786,460.39 79.208,459.777C79.629,459.165 79.919,458.663 79.851,458.663C79.782,458.663 79.382,459.165 78.96,459.777M75.597,464.913C74.449,466.836 74.451,466.832 74.591,466.832C74.654,466.832 75.013,466.303 75.389,465.656C75.765,465.009 76.233,464.23 76.431,463.923C76.628,463.617 76.729,463.366 76.655,463.366C76.581,463.366 76.105,464.063 75.597,464.913M73.144,469.059C72.932,469.468 72.815,469.802 72.883,469.802C72.951,469.802 73.18,469.468 73.391,469.059C73.602,468.651 73.719,468.317 73.651,468.317C73.583,468.317 73.355,468.651 73.144,469.059M70.903,473.293C70.28,474.533 69.811,475.586 69.859,475.635C69.908,475.683 70.471,474.669 71.111,473.381C71.751,472.093 72.22,471.04 72.154,471.04C72.089,471.04 71.525,472.054 70.903,473.293M112.428,475.918C110.805,477.932 107.72,481.696 105.572,484.282C103.424,486.869 99.441,491.77 96.722,495.173C94.003,498.577 91.685,501.336 91.572,501.305C91.459,501.273 91.294,501.476 91.206,501.754C91.117,502.033 90.574,503.061 89.997,504.039C89.421,505.017 88.612,506.429 88.199,507.178C87.786,507.927 86.485,510.255 85.308,512.352C84.131,514.448 83.168,516.193 83.168,516.23C83.168,516.266 82.667,517.144 82.054,518.18C81.442,519.216 80.941,520.11 80.941,520.166C80.941,520.222 80.217,521.507 79.332,523.02C78.447,524.533 77.723,525.817 77.723,525.873C77.723,525.929 77.166,526.918 76.485,528.07C75.804,529.223 75.248,530.219 75.248,530.285C75.248,530.351 74.746,531.252 74.134,532.289C73.521,533.325 73.02,534.222 73.02,534.282C73.02,534.342 72.484,535.313 71.829,536.44C70.626,538.511 68.622,542.062 67.563,543.998C67.247,544.576 66.875,545.05 66.737,545.05C66.571,545.05 66.568,545.133 66.73,545.295C67.043,545.607 69.974,545.101 74.48,543.957C100.139,537.442 121.34,518.218 133.711,490.249C134.476,488.52 136.129,484.259 136.137,483.995C136.138,483.974 134.886,483.256 133.354,482.4C125.209,477.849 116.861,473.154 116.167,472.734L115.379,472.257L112.428,475.918M67.978,479.612C67.608,480.513 67.347,481.29 67.397,481.341C67.447,481.391 67.791,480.695 68.161,479.794C68.53,478.893 68.792,478.115 68.742,478.065C68.692,478.015 68.348,478.711 67.978,479.612M65.24,486.775C65.149,487.138 65.123,487.482 65.181,487.541C65.239,487.599 65.362,487.35 65.453,486.987C65.544,486.625 65.57,486.28 65.512,486.222C65.454,486.163 65.331,486.412 65.24,486.775M63.755,491.726C63.664,492.088 63.638,492.433 63.696,492.491C63.754,492.55 63.876,492.301 63.967,491.938C64.059,491.575 64.085,491.23 64.027,491.172C63.969,491.114 63.846,491.363 63.755,491.726M62.995,494.554C62.901,494.982 62.876,495.384 62.939,495.447C63.002,495.51 63.125,495.206 63.212,494.771C63.418,493.739 63.218,493.539 62.995,494.554M61.444,502.97C61.444,503.447 61.495,503.642 61.557,503.403C61.619,503.165 61.619,502.775 61.557,502.537C61.495,502.299 61.444,502.494 61.444,502.97M61.196,504.95C61.196,505.427 61.247,505.622 61.309,505.384C61.371,505.145 61.371,504.756 61.309,504.517C61.247,504.279 61.196,504.474 61.196,504.95M60.949,506.931C60.949,507.407 60.999,507.602 61.062,507.364C61.124,507.126 61.124,506.736 61.062,506.498C60.999,506.259 60.949,506.454 60.949,506.931M60.751,514.728C60.751,518.131 60.786,519.558 60.828,517.898C60.871,516.238 60.871,513.454 60.829,511.71C60.786,509.966 60.751,511.324 60.751,514.728M60.949,522.525C60.949,523.001 60.999,523.196 61.062,522.958C61.124,522.72 61.124,522.33 61.062,522.092C60.999,521.853 60.949,522.048 60.949,522.525M61.196,524.505C61.196,524.981 61.247,525.176 61.309,524.938C61.371,524.7 61.371,524.31 61.309,524.072C61.247,523.834 61.196,524.028 61.196,524.505M61.449,526.361C61.451,526.906 61.502,527.1 61.561,526.792C61.62,526.484 61.618,526.038 61.556,525.802C61.494,525.565 61.446,525.817 61.449,526.361M62.921,533.787C62.921,534.059 63.01,534.561 63.119,534.901C63.276,535.391 63.317,535.417 63.317,535.025C63.317,534.752 63.228,534.251 63.119,533.911C62.962,533.421 62.921,533.395 62.921,533.787M63.649,536.634C63.649,536.838 63.744,537.228 63.861,537.5C63.995,537.812 64.074,537.858 64.074,537.624C64.074,537.42 63.978,537.03 63.861,536.757C63.727,536.445 63.649,536.4 63.649,536.634M64.391,539.109C64.391,539.313 64.487,539.703 64.604,539.975C64.738,540.287 64.817,540.333 64.817,540.099C64.817,539.895 64.721,539.505 64.604,539.233C64.47,538.921 64.391,538.875 64.391,539.109" style="fill:rgb(233,170,44);"/>
    </g>
</svg>
